<?xml version="1.0" ?><svg enable-background="new 0 0 64 64" height="64px" version="1.1" viewBox="0 0 64 64" width="64px" xml:space="preserve" xmlns="http://www.w3.org/2000/svg" xmlns:xlink="http://www.w3.org/1999/xlink"><g id="Layer_1"><g><circle cx="32" cy="32" fill="#4F5D73" r="32"/></g><g><g opacity="0.2"><g><path d="M49.969,33.062c-2.226,0-4.031-1.805-4.031-4.031c0-0.359,0.062-0.7,0.15-1.031H21.881      c0.088,0.331,0.15,0.672,0.15,1.031c0,2.226-1.805,4.031-4.031,4.031c-0.347,0-0.678-0.058-1-0.14v8.187      c0.322-0.083,0.653-0.14,1-0.14c2.226,0,4.031,1.805,4.031,4.031c0,0.347-0.058,0.678-0.14,1h24.187      c-0.083-0.322-0.14-0.653-0.14-1c0-2.226,1.805-4.031,4.031-4.031c0.359,0,0.7,0.062,1.031,0.15v-8.206      C50.669,33.001,50.328,33.062,49.969,33.062z M34,43c-3.314,0-6-2.686-6-6s2.686-6,6-6s6,2.686,6,6S37.314,43,34,43z" fill="#231F20"/></g><g><path d="M50,25H18c-0.276,0-0.546,0.028-0.806,0.081c-1.84,0.374-3.225,2-3.225,3.95      c0,0.106,0.023,0.206,0.031,0.31V44.69c-0.008,0.104-0.031,0.204-0.031,0.31c0,2.226,1.805,4.031,4.031,4.031      c0.106,0,0.206-0.023,0.31-0.031h31.349c0.104,0.008,0.204,0.031,0.31,0.031c1.95,0,3.576-1.385,3.95-3.225      C53.972,45.546,54,45.276,54,45V29C54,26.791,52.209,25,50,25z M49.969,40.969c-2.226,0-4.031,1.805-4.031,4.031      c0,0.347,0.058,0.678,0.14,1H21.891c0.083-0.322,0.14-0.653,0.14-1c0-2.226-1.805-4.031-4.031-4.031      c-0.347,0-0.678,0.058-1,0.14v-8.187c0.322,0.083,0.653,0.14,1,0.14c2.226,0,4.031-1.805,4.031-4.031      c0-0.359-0.062-0.7-0.15-1.031h24.206c-0.088,0.331-0.15,0.672-0.15,1.031c0,2.226,1.805,4.031,4.031,4.031      c0.359,0,0.7-0.062,1.031-0.15v8.206C50.669,41.031,50.328,40.969,49.969,40.969z" fill="#231F20"/></g><g><circle cx="34" cy="37" fill="#231F20" r="6"/></g></g><g><g><path d="M18,46c-1.654,0-3-1.346-3-3V27c0-1.654,1.346-3,3-3h32c1.654,0,3,1.346,3,3v16c0,1.654-1.346,3-3,3H18z      " fill="#76C2AF"/></g><g><path d="M50,25c1.103,0,2,0.897,2,2v16c0,1.103-0.897,2-2,2H18c-1.103,0-2-0.897-2-2V27c0-1.103,0.897-2,2-2H50       M50,23H18c-2.209,0-4,1.791-4,4v16c0,2.209,1.791,4,4,4h32c2.209,0,4-1.791,4-4V27C54,24.791,52.209,23,50,23L50,23z" fill="#E0E0D1"/></g></g><g><circle cx="34" cy="35" fill="#4F5D73" r="6"/></g><g><circle cx="49.969" cy="27.031" fill="#E0E0D1" r="4.031"/></g><g><circle cx="18" cy="27.031" fill="#E0E0D1" r="4.031"/></g><g><circle cx="49.969" cy="43" fill="#E0E0D1" r="4.031"/></g><g><circle cx="18" cy="43" fill="#E0E0D1" r="4.031"/></g></g><g><g opacity="0.2"><g><path d="M47.969,29.062c-2.226,0-4.031-1.805-4.031-4.031c0-0.359,0.062-0.7,0.15-1.031H19.881      c0.088,0.331,0.15,0.672,0.15,1.031c0,2.226-1.805,4.031-4.031,4.031c-0.347,0-0.678-0.058-1-0.14v8.187      c0.322-0.083,0.653-0.14,1-0.14c2.226,0,4.031,1.805,4.031,4.031c0,0.347-0.058,0.678-0.14,1h24.187      c-0.083-0.322-0.14-0.653-0.14-1c0-2.226,1.805-4.031,4.031-4.031c0.359,0,0.7,0.062,1.031,0.15v-8.206      C48.669,29.001,48.328,29.062,47.969,29.062z M32,39c-3.314,0-6-2.686-6-6s2.686-6,6-6s6,2.686,6,6S35.314,39,32,39z" fill="#231F20"/></g><g><path d="M48,21H16c-0.276,0-0.546,0.028-0.806,0.081c-1.84,0.374-3.225,2-3.225,3.95      c0,0.106,0.023,0.206,0.031,0.31V40.69c-0.008,0.104-0.031,0.204-0.031,0.31c0,2.226,1.805,4.031,4.031,4.031      c0.106,0,0.206-0.023,0.31-0.031h31.349c0.104,0.008,0.204,0.031,0.31,0.031c1.95,0,3.576-1.385,3.95-3.225      C51.972,41.546,52,41.276,52,41V25C52,22.791,50.209,21,48,21z M47.969,36.969c-2.226,0-4.031,1.805-4.031,4.031      c0,0.347,0.058,0.678,0.14,1H19.891c0.083-0.322,0.14-0.653,0.14-1c0-2.226-1.805-4.031-4.031-4.031      c-0.347,0-0.678,0.058-1,0.14v-8.187c0.322,0.083,0.653,0.14,1,0.14c2.226,0,4.031-1.805,4.031-4.031      c0-0.359-0.062-0.7-0.15-1.031h24.206c-0.088,0.331-0.15,0.672-0.15,1.031c0,2.226,1.805,4.031,4.031,4.031      c0.359,0,0.7-0.062,1.031-0.15v8.206C48.669,37.031,48.328,36.969,47.969,36.969z" fill="#231F20"/></g><g><circle cx="32" cy="33" fill="#231F20" r="6"/></g></g><g><g><path d="M14,42c-1.654,0-3-1.346-3-3V23c0-1.654,1.346-3,3-3h32c1.654,0,3,1.346,3,3v16c0,1.654-1.346,3-3,3H14z      " fill="#76C2AF"/></g><g><path d="M46,21c1.103,0,2,0.897,2,2v16c0,1.103-0.897,2-2,2H14c-1.103,0-2-0.897-2-2V23c0-1.103,0.897-2,2-2H46       M46,19H14c-2.209,0-4,1.791-4,4v16c0,2.209,1.791,4,4,4h32c2.209,0,4-1.791,4-4V23C50,20.791,48.209,19,46,19L46,19z" fill="#E0E0D1"/></g></g><g><circle cx="30" cy="31" fill="#4F5D73" r="6"/></g><g><circle cx="45.969" cy="23.031" fill="#E0E0D1" r="4.031"/></g><g><circle cx="14" cy="23.031" fill="#E0E0D1" r="4.031"/></g><g><circle cx="45.969" cy="39" fill="#E0E0D1" r="4.031"/></g><g><circle cx="14" cy="39" fill="#E0E0D1" r="4.031"/></g></g></g><g id="Layer_2"/></svg>