<svg width="32" height="32" viewBox="0 0 32 32" fill="none" xmlns="http://www.w3.org/2000/svg">
<mask id="mask0_662_27" style="mask-type:alpha" maskUnits="userSpaceOnUse" x="0" y="0" width="32" height="32">
<rect width="32" height="32" fill="#D9D9D9"/>
</mask>
<g mask="url(#mask0_662_27)">
<path d="M6.66667 28L4 12H28L25.3333 28H6.66667ZM8.9 25.3333H23.1L24.8 14.6667H7.2L8.9 25.3333ZM13.3333 20H18.6667C19.0444 20 19.3611 19.8722 19.6167 19.6167C19.8722 19.3611 20 19.0444 20 18.6667C20 18.2889 19.8722 17.9722 19.6167 17.7167C19.3611 17.4611 19.0444 17.3333 18.6667 17.3333H13.3333C12.9556 17.3333 12.6389 17.4611 12.3833 17.7167C12.1278 17.9722 12 18.2889 12 18.6667C12 19.0444 12.1278 19.3611 12.3833 19.6167C12.6389 19.8722 12.9556 20 13.3333 20ZM8 10.6667C7.62222 10.6667 7.30556 10.5389 7.05 10.2833C6.79444 10.0278 6.66667 9.71111 6.66667 9.33333C6.66667 8.95556 6.79444 8.63889 7.05 8.38333C7.30556 8.12778 7.62222 8 8 8H24C24.3778 8 24.6944 8.12778 24.95 8.38333C25.2056 8.63889 25.3333 8.95556 25.3333 9.33333C25.3333 9.71111 25.2056 10.0278 24.95 10.2833C24.6944 10.5389 24.3778 10.6667 24 10.6667H8ZM10.6667 6.66667C10.2889 6.66667 9.97222 6.53889 9.71667 6.28333C9.46111 6.02778 9.33333 5.71111 9.33333 5.33333C9.33333 4.95556 9.46111 4.63889 9.71667 4.38333C9.97222 4.12778 10.2889 4 10.6667 4H21.3333C21.7111 4 22.0278 4.12778 22.2833 4.38333C22.5389 4.63889 22.6667 4.95556 22.6667 5.33333C22.6667 5.71111 22.5389 6.02778 22.2833 6.28333C22.0278 6.53889 21.7111 6.66667 21.3333 6.66667H10.6667Z" fill="#EB7857"/>
</g>
</svg>
