<svg width="32" height="32" viewBox="0 0 32 32" fill="none" xmlns="http://www.w3.org/2000/svg">
<mask id="mask0_662_6" style="mask-type:alpha" maskUnits="userSpaceOnUse" x="0" y="0" width="32" height="32">
<rect width="32" height="32" fill="#D9D9D9"/>
</mask>
<g mask="url(#mask0_662_6)">
<path d="M6.66667 22.6667C5.93333 22.6667 5.30556 22.4056 4.78333 21.8833C4.26111 21.3611 4 20.7333 4 20V12C4 11.2667 4.26111 10.6389 4.78333 10.1167C5.30556 9.59444 5.93333 9.33333 6.66667 9.33333H25.3333C26.0667 9.33333 26.6944 9.59444 27.2167 10.1167C27.7389 10.6389 28 11.2667 28 12V20C28 20.7333 27.7389 21.3611 27.2167 21.8833C26.6944 22.4056 26.0667 22.6667 25.3333 22.6667H6.66667ZM6.66667 20H25.3333V12H6.66667V20ZM4 6.66667V4H28V6.66667H4ZM4 28V25.3333H28V28H4Z" fill="#EB7857"/>
</g>
</svg>
