<svg width="52" height="52" viewBox="0 0 52 52" fill="none" xmlns="http://www.w3.org/2000/svg">
<mask id="mask0_584_552" style="mask-type:alpha" maskUnits="userSpaceOnUse" x="0" y="0" width="52" height="52">
<rect width="51.1973" height="51.1973" fill="#D9D9D9"/>
</mask>
<g mask="url(#mask0_584_552)">
<path d="M10.6661 44.7974C9.49283 44.7974 8.48844 44.3796 7.65292 43.5441C6.81741 42.7086 6.39966 41.7042 6.39966 40.5309V10.6659C6.39966 9.49258 6.81741 8.48819 7.65292 7.65268C8.48844 6.81717 9.49283 6.39941 10.6661 6.39941H40.5312C41.7044 6.39941 42.7088 6.81717 43.5443 7.65268C44.3799 8.48819 44.7976 9.49258 44.7976 10.6659V40.5309C44.7976 41.7042 44.3799 42.7086 43.5443 43.5441C42.7088 44.3796 41.7044 44.7974 40.5312 44.7974H10.6661ZM10.6661 10.6659V40.5309H40.5312V10.6659H36.2647V25.5984L30.9317 22.3986L25.5986 25.5984V10.6659H10.6661Z" fill="#EB7857"/>
</g>
</svg>
