<svg width="24" height="28" viewBox="0 0 24 28" fill="none" xmlns="http://www.w3.org/2000/svg">
<path d="M10.6667 23.9003V14.767L2.66667 10.1337V19.267L10.6667 23.9003ZM13.3333 23.9003L21.3333 19.267V10.1337L13.3333 14.767V23.9003ZM12 12.467L19.9 7.90033L12 3.33366L4.1 7.90033L12 12.467ZM1.33333 21.6003C0.911111 21.3559 0.583333 21.0337 0.35 20.6337C0.116667 20.2337 0 19.7892 0 19.3003V8.70033C0 8.21144 0.116667 7.76699 0.35 7.36699C0.583333 6.96699 0.911111 6.64477 1.33333 6.40033L10.6667 1.03366C11.0889 0.789214 11.5333 0.666992 12 0.666992C12.4667 0.666992 12.9111 0.789214 13.3333 1.03366L22.6667 6.40033C23.0889 6.64477 23.4167 6.96699 23.65 7.36699C23.8833 7.76699 24 8.21144 24 8.70033V19.3003C24 19.7892 23.8833 20.2337 23.65 20.6337C23.4167 21.0337 23.0889 21.3559 22.6667 21.6003L13.3333 26.967C12.9111 27.2114 12.4667 27.3337 12 27.3337C11.5333 27.3337 11.0889 27.2114 10.6667 26.967L1.33333 21.6003Z" fill="#EB7857"/>
</svg>
