<svg width="52" height="52" viewBox="0 0 52 52" fill="none" xmlns="http://www.w3.org/2000/svg">
<mask id="mask0_584_569" style="mask-type:alpha" maskUnits="userSpaceOnUse" x="0" y="0" width="52" height="52">
<rect width="51.1973" height="51.1973" fill="#D9D9D9"/>
</mask>
<g mask="url(#mask0_584_569)">
<path d="M23.4653 44.7974V40.5309H40.5311V25.3851C40.5311 21.2253 39.0823 17.6966 36.1847 14.799C33.287 11.9013 29.7583 10.4525 25.5985 10.4525C21.4388 10.4525 17.9101 11.9013 15.0124 14.799C12.1148 17.6966 10.666 21.2253 10.666 25.3851V38.3977H8.5328C7.35953 38.3977 6.35513 37.98 5.51962 37.1444C4.68411 36.3089 4.26636 35.3045 4.26636 34.1313V29.8648C4.26636 29.1182 4.45301 28.416 4.82633 27.7583C5.19964 27.1005 5.72406 26.5761 6.39958 26.185L6.55957 23.3585C6.844 20.9409 7.54618 18.701 8.66612 16.6389C9.78606 14.5768 11.1904 12.7813 12.8792 11.2525C14.568 9.72368 16.5057 8.53263 18.6923 7.67935C20.8788 6.82606 23.1809 6.39941 25.5985 6.39941C28.0162 6.39941 30.3094 6.82606 32.4782 7.67935C34.647 8.53263 36.5846 9.71479 38.2912 11.2258C39.9978 12.7369 41.4022 14.5234 42.5043 16.5855C43.6065 18.6476 44.3176 20.8875 44.6375 23.3052L44.7975 26.0784C45.473 26.3983 45.9975 26.8783 46.3708 27.5183C46.7441 28.1583 46.9307 28.8338 46.9307 29.5448V34.4513C46.9307 35.1623 46.7441 35.8378 46.3708 36.4778C45.9975 37.1178 45.473 37.5977 44.7975 37.9177V40.5309C44.7975 41.7042 44.3798 42.7086 43.5443 43.5441C42.7087 44.3796 41.7044 44.7974 40.5311 44.7974H23.4653ZM19.1989 29.8648C18.5945 29.8648 18.0878 29.6604 17.679 29.2515C17.2701 28.8427 17.0657 28.336 17.0657 27.7316C17.0657 27.1272 17.2701 26.6206 17.679 26.2117C18.0878 25.8028 18.5945 25.5984 19.1989 25.5984C19.8033 25.5984 20.3099 25.8028 20.7188 26.2117C21.1277 26.6206 21.3321 27.1272 21.3321 27.7316C21.3321 28.336 21.1277 28.8427 20.7188 29.2515C20.3099 29.6604 19.8033 29.8648 19.1989 29.8648ZM31.9982 29.8648C31.3938 29.8648 30.8872 29.6604 30.4783 29.2515C30.0694 28.8427 29.865 28.336 29.865 27.7316C29.865 27.1272 30.0694 26.6206 30.4783 26.2117C30.8872 25.8028 31.3938 25.5984 31.9982 25.5984C32.6026 25.5984 33.1093 25.8028 33.5181 26.2117C33.927 26.6206 34.1314 27.1272 34.1314 27.7316C34.1314 28.336 33.927 28.8427 33.5181 29.2515C33.1093 29.6604 32.6026 29.8648 31.9982 29.8648ZM12.8526 26.5583C12.6037 22.7896 13.7414 19.5543 16.2657 16.8522C18.79 14.1501 21.9365 12.7991 25.7052 12.7991C28.8695 12.7991 31.6516 13.8035 34.0514 15.8122C36.4513 17.821 37.9001 20.3898 38.3979 23.5185C35.1625 23.4829 32.1849 22.6119 29.465 20.9053C26.7452 19.1987 24.6564 16.8877 23.1987 13.9723C22.6298 16.8166 21.4299 19.3498 19.5989 21.5719C17.7679 23.794 15.5191 25.4562 12.8526 26.5583Z" fill="#EB7857"/>
</g>
</svg>
