<svg width="28" height="24" viewBox="0 0 28 24" fill="none" xmlns="http://www.w3.org/2000/svg">
<path d="M6.00008 24V21.3333H12.6667V17.3333H3.33341C2.60008 17.3333 1.9723 17.0722 1.45008 16.55C0.927859 16.0278 0.666748 15.4 0.666748 14.6667V2.66667C0.666748 1.93333 0.927859 1.30556 1.45008 0.783333C1.9723 0.261111 2.60008 0 3.33341 0H24.6667C25.4001 0 26.0279 0.261111 26.5501 0.783333C27.0723 1.30556 27.3334 1.93333 27.3334 2.66667V14.6667C27.3334 15.4 27.0723 16.0278 26.5501 16.55C26.0279 17.0722 25.4001 17.3333 24.6667 17.3333H15.3334V21.3333H22.0001V24H6.00008ZM3.33341 14.6667H24.6667V2.66667H3.33341V14.6667Z" fill="#EB7857"/>
</svg>
