<svg width="28" height="28" viewBox="0 0 28 28" fill="none" xmlns="http://www.w3.org/2000/svg">
<path d="M18.4001 20.267L20.2667 18.4003L15.3334 13.467V7.33366H12.6667V14.5337L18.4001 20.267ZM14.0001 27.3337C12.1556 27.3337 10.4223 26.9837 8.80008 26.2837C7.17786 25.5837 5.76675 24.6337 4.56675 23.4337C3.36675 22.2337 2.41675 20.8225 1.71675 19.2003C1.01675 17.5781 0.666748 15.8448 0.666748 14.0003C0.666748 12.1559 1.01675 10.4225 1.71675 8.80032C2.41675 7.1781 3.36675 5.76699 4.56675 4.56699C5.76675 3.36699 7.17786 2.41699 8.80008 1.71699C10.4223 1.01699 12.1556 0.666992 14.0001 0.666992C15.8445 0.666992 17.5779 1.01699 19.2001 1.71699C20.8223 2.41699 22.2334 3.36699 23.4334 4.56699C24.6334 5.76699 25.5834 7.1781 26.2834 8.80032C26.9834 10.4225 27.3334 12.1559 27.3334 14.0003C27.3334 15.8448 26.9834 17.5781 26.2834 19.2003C25.5834 20.8225 24.6334 22.2337 23.4334 23.4337C22.2334 24.6337 20.8223 25.5837 19.2001 26.2837C17.5779 26.9837 15.8445 27.3337 14.0001 27.3337ZM14.0001 24.667C16.9556 24.667 19.4723 23.6281 21.5501 21.5503C23.6279 19.4725 24.6667 16.9559 24.6667 14.0003C24.6667 11.0448 23.6279 8.5281 21.5501 6.45033C19.4723 4.37255 16.9556 3.33366 14.0001 3.33366C11.0445 3.33366 8.52786 4.37255 6.45008 6.45033C4.3723 8.5281 3.33341 11.0448 3.33341 14.0003C3.33341 16.9559 4.3723 19.4725 6.45008 21.5503C8.52786 23.6281 11.0445 24.667 14.0001 24.667Z" fill="#EB7857"/>
</svg>
