<svg width="52" height="52" viewBox="0 0 52 52" fill="none" xmlns="http://www.w3.org/2000/svg">
<mask id="mask0_584_562" style="mask-type:alpha" maskUnits="userSpaceOnUse" x="0" y="0" width="52" height="52">
<rect width="51.1973" height="51.1973" fill="#D9D9D9"/>
</mask>
<g mask="url(#mask0_584_562)">
<path d="M20.2655 35.1983L35.198 25.5988L20.2655 15.9993V35.1983ZM25.5985 46.931C22.6476 46.931 19.8744 46.371 17.279 45.2511C14.6836 44.1311 12.4259 42.6112 10.506 40.6913C8.58613 38.7714 7.06621 36.5138 5.94627 33.9184C4.82633 31.3229 4.26636 28.5497 4.26636 25.5988C4.26636 22.6478 4.82633 19.8747 5.94627 17.2792C7.06621 14.6838 8.58613 12.4262 10.506 10.5063C12.4259 8.58637 14.6836 7.06645 17.279 5.94651C19.8744 4.82657 22.6476 4.2666 25.5985 4.2666C28.5495 4.2666 31.3227 4.82657 33.9181 5.94651C36.5135 7.06645 38.7712 8.58637 40.6911 10.5063C42.611 12.4262 44.1309 14.6838 45.2508 17.2792C46.3708 19.8747 46.9307 22.6478 46.9307 25.5988C46.9307 28.5497 46.3708 31.3229 45.2508 33.9184C44.1309 36.5138 42.611 38.7714 40.6911 40.6913C38.7712 42.6112 36.5135 44.1311 33.9181 45.2511C31.3227 46.371 28.5495 46.931 25.5985 46.931ZM25.5985 42.6645C30.3627 42.6645 34.3981 41.0113 37.7046 37.7048C41.0111 34.3983 42.6643 30.363 42.6643 25.5988C42.6643 20.8346 41.0111 16.7993 37.7046 13.4928C34.3981 10.1863 30.3627 8.53304 25.5985 8.53304C20.8344 8.53304 16.799 10.1863 13.4925 13.4928C10.186 16.7993 8.5328 20.8346 8.5328 25.5988C8.5328 30.363 10.186 34.3983 13.4925 37.7048C16.799 41.0113 20.8344 42.6645 25.5985 42.6645Z" fill="#EB7857"/>
</g>
</svg>
