<svg xmlns="http://www.w3.org/2000/svg" width="320" height="320" viewBox="0 0 320 320"><path d="M70.681 136.386h2.076l-17.021 53.35h-2.699l-16.606-51.273h-.208l-16.71 51.273h-2.906L0 136.385h2.076l15.88 51.272h.208l16.503-51.272h3.219l16.397 51.272h.208zm5.914 27.092c.208 14.321 5.917 25.428 21.068 25.428 11.002 0 19.1-6.123 20.862-17.645h2.076c-1.453 12.247-10.587 19.721-22.73 19.721-16.502.207-23.354-12.041-23.354-27.92 0-17.75 11.312-27.92 23.354-27.92 16.606 0 23.978 13.701 23.354 28.336zm42.556-2.077c.104-13.081-7.266-24.186-21.07-24.186-11.521 0-20.759 9.237-21.483 24.186zm13.758 11.397c2.695 9.062 9.49 16.107 20.283 16.107 13.804 0 20.654-12.039 20.654-25.74 0-12.354-6.021-25.948-20.654-25.948-12.974 0-21.589 9.445-21.589 25.948l.005.508-2.08.006v-48.052h2.076v35.704h-.001.207c2.491-9.651 10.068-16.19 21.382-16.19 14.738 0 22.729 13.078 22.729 28.024 0 16.089-8.612 27.816-22.729 27.816-10.896 0-19.763-7.634-22.361-18.176l.134-.009m88.184-58.933c24.521 0 37.698 17.749 37.698 38.819 0 21.07-13.18 38.818-37.698 38.818-24.52 0-37.696-17.748-37.696-38.818-.001-21.07 13.176-38.819 37.696-38.819zm0 75.561c22.001 0 35.177-15.36 35.406-36.743-.229-21.381-13.405-36.743-35.406-36.743-21.999 0-35.175 15.361-35.404 36.743.229 21.383 13.405 36.743 35.404 36.743zm93.914-53.038c-.532-15.154-10.99-20.447-24.756-20.447-10.78 0-23.905 3.737-23.905 17.022 0 13.389 13.23 14.946 26.253 17.956 14.192 3.529 26.038 5.189 26.038 20.654 0 14.013-13.873 19.929-26.895 19.929-17.286 0-30.095-7.681-29.771-26.363h2.134c0 17.749 11.419 24.288 27.64 24.288 11.951 0 24.76-5.189 24.76-17.956 0-14.946-14.94-16.192-26.681-18.995-12.38-2.802-25.61-4.982-25.61-19.513 0-14.739 13.767-19.098 26.04-19.098 14.938 0 26.145 5.917 26.891 22.523z" fill="#fff"/></svg>