<svg baseProfile="tiny" xmlns="http://www.w3.org/2000/svg" viewBox="0 0 256 256"><g fill="#fff"><path d="M227 104.4c-.8.8-1.8 1.4-2.9 1.7-11.8 3.8-23.6 7.7-35.3 11.5-1.6.5-3.2 1.1-4.7 1.6-1.4.4-2.8.3-4-.6-7.1-5.2-14.2-10.4-21.4-15.6-.2-.1-.3-.3-.5-.5 1.1-1.8 2.6-3.3 4-4.9 5.1-5.7 10.6-10.9 17.2-14.9 3.6-2.1 7.3-3.7 11.5-4 1.8-.1 3.4.4 5 1.2 3.6 1.9 6.9 4.3 10.2 6.7l18.9 13.8c.8.6 1.5 1.2 2.1 1.9-.1.8-.1 1.5-.1 2.1zm-198 2.7c1.5-1.8 2-1.9 4.3-1.2 11 3.6 22.1 7.3 33.1 10.9 2.4.8 4.7 1.6 7.1 2.4 1.6.5 2.5 1.5 2.9 3 2.5 7.9 5 15.9 7.5 23.8.6 2 .6 1.9-1.3 2.4-7 1.8-14.1 2.9-21.3 3-3.7.1-7.4-.3-11.1-1.2-1.7-.4-3.3-1.1-4.8-1.9-2-1-3.5-2.5-4.5-4.6-2.3-4.8-3.8-9.9-5.5-15-2.1-6.5-4.1-13-6.2-19.4-.1-.2-.2-.3-.3-.5.1-.4.1-1.1.1-1.7zM168.6 153c4.3 1.6 8.2 3.4 12.1 5.5 4.4 2.4 8.7 5 12.5 8.3 3.1 2.7 5.9 5.7 7.6 9.6.9 2 1 4.1.6 6.2-.8 4.9-2.5 9.5-4 14.2-2.1 6.5-4.3 13-6.4 19.6l-.3.9c-.3 1.1-.9 1.8-2.1 2-1.1.2-2-.3-2.6-1.2-2.7-3.8-5.4-7.5-8.1-11.3-5.6-7.7-11.1-15.5-16.7-23.2-1.1-1.6-1.6-3.1-1-5 2.7-8.2 5.4-16.5 8.1-24.7 0-.2.1-.4.3-.9zm-63.2-53.9c-1.4-1.9-2.6-4-3.7-6.1-3.3-6-6.2-12.2-7.9-19-1.1-4.7-1.7-9.3-.3-14.1.3-1 .7-1.8 1.4-2.5 3.1-3.4 6.8-6.1 10.5-8.7 6.6-4.7 13.2-9.4 19.8-14.2.3-.2.6-.5 1-.6 1.6-.8 3.2.1 3.5 1.8.1.6.1 1.2.1 1.7v42.1c0 1.8-.6 2.8-2 3.8-6.6 4.7-13.2 9.4-19.8 14.2-.8.6-1.5 1.2-2.6 1.6zm19.4 82.5c-.5 9.6-1.9 18.9-5.5 27.8-1.3 3.2-3.1 6.2-5.5 8.8-2.2 2.4-4.8 3.4-8 3.7-4.2.5-8.5.4-12.7.4H71.4c-1.3 0-2.5-.2-3.1-1.5-.6-1.2 0-2.2.7-3.2 8.2-11.4 16.4-22.7 24.6-34.2 1.2-1.7 2.7-2.2 4.6-2.2h24.9c.6.1 1 0 1.7.4z"/><path d="M88.2 65.9c.9 11.5 5.4 21.6 11.1 31.2 4.3 7.1 9.5 13.6 14.3 20.4 1.6 2.4 3.4 4.7 5 7.1 1.1 1.6 1.1 2 0 3.6-.6.9-1.3 1.8-1.9 2.7-1.1 1.5-1.8 1.8-3.6 1.1l-14.4-4.8c-6.1-2-12.3-4.1-18.4-6.1-.5-.2-1.1-.4-1.6-.6-2.8-1.1-3.7-2.9-2.9-5.8 1-3.9 2-7.7 2.9-11.6 2.8-11.2 5.7-22.4 8.5-33.6.2-1.1.6-2.4 1-3.6zM199.8 170c-2.6-3.3-5.7-5.9-9.1-8.3-8-5.7-16.8-9.8-26.2-12.8-7.7-2.4-15.3-5-22.9-7.5-1.7-.6-2-1-2-2.8v-3.3c0-2.1.3-2.6 2.3-3.2 5.8-1.9 11.6-3.8 17.4-5.6 5.5-1.8 11-3.5 16.5-5.3 3.2-1.1 5.2-.2 6.4 2.9 5.6 14 11.2 28 16.8 42.1.5 1.1.9 2.4.8 3.8zm-151-17.3c1.9.1 3.4.7 5 1 9.1 1.7 18 .8 26.9-1.7 9.9-2.9 19.6-6.3 29.5-9.3 1.1-.3 2.2-.7 3.3-1.1 1.2-.5 2.1-.2 2.9.8.9 1.2 1.8 2.5 2.7 3.7.8 1.1.3 2-.4 3-2.5 3.4-4.9 6.8-7.4 10.1-4.5 6.1-8.9 12.3-13.4 18.4l-.9 1.2c-1.7 2.1-3.6 2.5-5.9 1.1-5.1-3.2-10.2-6.4-15.3-9.7-8.3-5.2-16.5-10.4-24.8-15.7-.8-.3-1.6-.7-2.2-1.8zm69.8 64.1c3.3-4.8 5-10 6.4-15.4 2-8 2.8-16.2 2.8-24.5v-23.4c0-3 .3-3.4 3.1-4.3 4-1.3 4-1.4 6.4 2 6.6 9.3 13.2 18.5 19.8 27.8 1.7 2.4 1.4 4.6-.8 6.5-11.6 10-23.2 20-34.9 29.9-.7.7-1.3 1.7-2.8 1.4zm65.6-139.1c-6.2 2.2-11.6 5.8-16.6 10.1-5.5 4.7-10.4 10-14.6 15.9-4.8 6.6-9.8 13.1-14.6 19.7-.8 1.1-1.8 1.4-3 1.1-1.4-.4-2.7-.9-4-1.3-1.1-.3-1.6-1.1-1.7-2.1-.1-.4 0-.9 0-1.4V84.9c.3-2.5 1.7-3.9 4.3-4.2l8.1-.6c6-.4 12.1-.8 18.1-1.2l18.9-1.2c1.7-.1 3.4-.5 5.1 0z"/></g></svg>