<svg xmlns="http://www.w3.org/2000/svg" viewBox="0 0 57.001 57.001" width="512" height="512"><g fill="#FFF"><path d="M35.361 5.677l2.497-4.162A1 1 0 1 0 36.143.486l-2.635 4.392C31.939 4.32 30.259 4 28.501 4s-3.438.32-5.007.878L20.859.486a.999.999 0 1 0-1.715 1.029l2.497 4.162c-4.827 2.495-8.14 7.525-8.14 13.324a1 1 0 0 0 1 1h28a1 1 0 0 0 1-1c-.001-5.798-3.313-10.828-8.14-13.324zM15.539 18.001c.512-6.703 6.13-12 12.962-12s12.45 5.297 12.962 12H15.539z"/><path d="M35.478 11.364H34.16a.659.659 0 0 0-.659.659v1.318c0 .364.295.659.659.659h1.319a.659.659 0 0 0 .659-.659v-1.318a.66.66 0 0 0-.66-.659zm-12.637 0h-1.319a.659.659 0 0 0-.659.659v1.318c0 .364.295.659.659.659h1.319a.659.659 0 0 0 .659-.659v-1.318a.659.659 0 0 0-.659-.659zM42.5 21.001h-28a1 1 0 0 0-1 1v20.171a4.837 4.837 0 0 0 4.834 4.829H19.5v6.006c0 2.202 1.794 3.994 4 3.994s4-1.792 4-3.994v-6.006h2v6.006c0 2.202 1.794 3.994 4 3.994s4-1.792 4-3.994v-6.006h1.166a4.836 4.836 0 0 0 4.834-4.829V22.001a1 1 0 0 0-1-1zm-1 21.171a2.834 2.834 0 0 1-2.834 2.829H36.5a1 1 0 0 0-1 1v7.006a2 2 0 1 1-4 0v-7.006a1 1 0 0 0-1-1h-4a1 1 0 0 0-1 1v7.006a2 2 0 1 1-4 0v-7.006a1 1 0 0 0-1-1h-2.165a2.836 2.836 0 0 1-2.835-2.829V23.001h26v19.171zM48 21.001c-1.93 0-3.5 1.572-3.5 3.504v13.992c0 1.932 1.57 3.504 3.5 3.504s3.5-1.572 3.5-3.504V24.505a3.506 3.506 0 0 0-3.5-3.504zm1.5 17.496c0 .829-.673 1.504-1.5 1.504s-1.5-.675-1.5-1.504V24.505c0-.829.673-1.504 1.5-1.504s1.5.675 1.5 1.504v13.992zM9 21.001c-1.93 0-3.5 1.572-3.5 3.504v13.992c0 1.932 1.57 3.504 3.5 3.504s3.5-1.572 3.5-3.504V24.505A3.506 3.506 0 0 0 9 21.001zm1.5 17.496c0 .829-.673 1.504-1.5 1.504s-1.5-.675-1.5-1.504V24.505c0-.829.673-1.504 1.5-1.504s1.5.675 1.5 1.504v13.992z"/></g></svg>