<svg xmlns="http://www.w3.org/2000/svg" viewBox="0 0 512 512" width="512" height="512"><path d="M498.37 2.691c-2.362-2.069-5.686-3-8.814-2.601l-219.47 29.298c-5.41.723-10 5.34-10 10.798v191.651c0 6.016 5.793 10.77 11.809 10.77h218.917c6.016 0 11.66-4.754 11.66-10.77V10.888c-.001-3.143-1.741-6.127-4.102-8.197zM480.683 220.82h-198.81V49.718l198.811-26.383V220.82zm-245.125 47.459c-2.048-2.043-4.005-3.426-7.261-3.181l-205.555.431c-6.011.011-10.49 4.888-10.49 10.894v163.411c0 5.484 3.697 10.112 9.133 10.808l205.747 26.219c.463.058.824.085 1.282.085 2.633 0 4.691-.958 6.697-2.718 2.346-2.069 3.186-5.048 3.186-8.176v-190.06c.001-2.893-.691-5.665-2.739-7.713zM216.51 453.686L34.04 430.238V287.296l182.47-.388v166.778zm274.7-188.57l-219.3-.721h-.016c-2.888 0-6.112 1.556-8.154 3.599-2.048 2.043-3.654 5.227-3.654 8.121V471.5c0 5.452 4.489 10.064 9.894 10.798l219.146 29.606c.484.064 1.088.096 1.572.096 2.622 0 5.61-.947 7.61-2.691 2.367-2.069 4.164-5.059 4.164-8.202V276.423c-.001-6.011-5.251-11.297-11.262-11.307zm-10.527 223.522l-198.811-26.66V287.024l198.811.276v201.338zM235.058 37.335c-2.356-2.069-5.048-3.032-8.128-2.622L19.492 61.357c-5.436.697-9.963 5.324-9.963 10.803v159.677c0 6.016 5.793 10.77 11.809 10.77h206.981c6.016 0 9.979-4.754 9.979-10.77V45.516c0-3.133-.889-6.111-3.24-8.181zM216.51 220.82H31.317V81.74L216.51 57.905V220.82z" fill="#fff"/></svg>